<svg width="20" height="20" viewBox="0 0 20 20" fill="none" xmlns="http://www.w3.org/2000/svg">
<path d="M9.9999 1.66634C14.5957 1.66634 18.3332 5.40467 18.3332 9.99967C18.3332 14.5947 14.5957 18.333 9.9999 18.333C5.4049 18.333 1.66656 14.5947 1.66656 9.99967C1.66656 5.40467 5.4049 1.66634 9.9999 1.66634Z" fill="#B1D145"/>
<path d="M9.37377 12.9138C9.1871 12.9138 9.00044 12.8429 8.85794 12.7004L6.88044 10.7229C6.59544 10.4379 6.59544 9.97625 6.88044 9.69208C7.16544 9.40708 7.62627 9.40625 7.91127 9.69125L9.37377 11.1538L12.8138 7.71375C13.0988 7.42875 13.5596 7.42875 13.8446 7.71375C14.1296 7.99875 14.1296 8.46042 13.8446 8.74542L9.8896 12.7004C9.7471 12.8429 9.56044 12.9138 9.37377 12.9138Z" fill="white"/>
</svg>
