<svg width="20" height="20" viewBox="0 0 20 20" fill="none" xmlns="http://www.w3.org/2000/svg">
<path d="M9.9999 1.66634C14.5957 1.66634 18.3332 5.40467 18.3332 9.99967C18.3332 14.5947 14.5957 18.333 9.9999 18.333C5.4049 18.333 1.66656 14.5947 1.66656 9.99967C1.66656 5.40467 5.4049 1.66634 9.9999 1.66634" stroke="#B1D145"/>
<path d="M8.79788 6.48244C8.95705 6.48244 9.11705 6.54327 9.23871 6.66494L12.1445 9.55661C12.262 9.67411 12.3279 9.83327 12.3279 9.99994C12.3279 10.1658 12.262 10.3249 12.1445 10.4424L9.23871 13.3358C8.99455 13.5791 8.59955 13.5791 8.35538 13.3341C8.11205 13.0891 8.11288 12.6933 8.35705 12.4499L10.8179 9.99994L8.35705 7.54994C8.11288 7.30661 8.11205 6.91161 8.35538 6.66661C8.47705 6.54327 8.63788 6.48244 8.79788 6.48244Z" fill="#B1D145"/>
</svg>
