<svg width="166" height="40" viewBox="0 0 166 40" fill="none" xmlns="http://www.w3.org/2000/svg">
<g clip-path="url(#clip0_906:1039)">
<path d="M0 3.94824V32.2361H8.24105C17.2313 32.2361 23.0063 26.9381 23.0063 18.108C23.0063 9.24631 17.2313 3.94824 8.24105 3.94824H0ZM8.24105 9.9401C12.8298 9.9401 15.889 12.6837 15.889 18.108C15.889 23.5006 12.8298 26.2758 8.24105 26.2758H6.83633V9.9401H8.24105ZM44.0771 23.406C44.1083 22.9014 44.1083 22.4599 44.1083 22.05C44.1083 14.8282 40.4873 10.5078 33.807 10.5078C27.6262 10.5078 23.4745 15.4589 23.4745 21.7031C23.4745 27.9472 27.7199 32.7722 34.6499 32.7722C40.0815 32.7722 42.9534 29.3348 43.5777 28.0734L39.1762 24.6359C38.7704 25.2666 37.272 26.9065 34.7747 26.9065C32.2774 26.9065 30.4669 25.2982 30.3108 23.406H44.0771ZM33.9319 15.9635C35.9922 15.9635 37.2408 17.4142 37.3345 19.1171H30.5293C30.6854 17.6034 31.7156 15.9635 33.9319 15.9635ZM56.0641 26.8435C53.0049 26.8435 50.9135 24.7305 50.9135 21.6085C50.9135 18.8017 52.6616 16.5627 55.8456 16.5627C57.4064 16.5627 58.8736 17.1619 60.0286 18.1395L61.8391 12.4315C60.3719 11.3908 58.3117 10.5078 55.5959 10.5078C49.1029 10.5078 44.2332 15.1436 44.2332 21.6715C44.2332 28.168 48.9468 32.7722 55.6271 32.7722C58.2805 32.7722 60.4032 31.8577 61.8079 30.8801L60.0286 25.3297C59.1233 26.1181 57.6249 26.8435 56.0641 26.8435ZM61.8703 25.6451C61.8703 30.2809 65.5538 32.7722 69.6743 32.7722C71.8282 32.7722 73.3578 32.173 74.4192 31.0693L74.7938 32.2361H80.7561V19.1171C80.7561 14.2605 78.9143 10.5078 71.6722 10.5078C68.176 10.5078 65.3353 11.6431 63.119 13.1252L65.585 17.6664C67.2395 16.8465 69.0188 16.3104 70.8605 16.3104C73.0457 16.3104 74.0758 17.3195 74.0758 18.6125V19.4009C73.3266 19.054 71.8595 18.6125 70.0177 18.6125C65.0544 18.6125 61.8703 21.4192 61.8703 25.6451ZM68.5506 25.4243C68.5506 24.0367 69.7368 23.1537 71.36 23.1537C72.952 23.1537 74.2007 23.9737 74.2007 25.4243C74.2007 26.8435 72.9832 27.6003 71.3912 27.6003C69.8304 27.6003 68.5506 26.8435 68.5506 25.4243ZM97.3006 31.1639C97.3006 33.7499 94.8345 34.3175 92.3372 34.3175C89.4966 34.3175 87.1553 33.3083 86.531 33.0245L84.5956 38.1964C86.4686 39.1741 89.3717 39.994 92.3372 39.994C98.5804 39.994 103.981 37.5342 103.981 29.7132V11.0123H97.7376V12.6837C97.1445 11.9899 95.1467 10.5078 92.0563 10.5078C86.0316 10.5078 81.7862 15.112 81.7862 21.6085C81.7862 28.1995 85.6258 32.7722 91.7129 32.7722C94.8969 32.7722 96.8636 31.1639 97.3006 30.6278V31.1639ZM97.5191 21.5769C97.5191 24.9197 95.6149 26.8435 92.9928 26.8435C90.277 26.8435 88.4664 24.699 88.4664 21.5769C88.4664 18.4233 90.277 16.4365 92.9615 16.4365C95.8334 16.4365 97.5191 18.7387 97.5191 21.5769ZM159.202 32.2361H165.882V20.4732C165.882 16.1527 165.258 10.5078 158.671 10.5078C156.049 10.5078 154.208 11.9584 153.396 13.2199V11.0123H146.872V32.2361H153.552V19.5901C153.552 17.8872 154.613 16.5627 156.455 16.5627C158.047 16.5627 159.202 17.6034 159.202 19.5901V32.2361Z" fill="white"/>
<path fill-rule="evenodd" clip-rule="evenodd" d="M120.026 9.43564C120.931 9.43564 121.837 9.53025 122.742 9.71947L121.649 12.7469C121.15 12.6839 120.619 12.6523 120.088 12.6523C118.746 12.6523 117.466 12.8731 116.249 13.3146L115.749 10.0979C117.092 9.65639 118.528 9.43564 120.026 9.43564ZM118.34 29.5557C117.872 28.7357 117.497 27.8843 117.217 27.0328L120.369 26.4651C120.557 26.9382 120.775 27.4112 121.056 27.8527C121.712 29.0511 122.555 30.0603 123.522 30.8802L121.056 32.93C119.995 31.984 119.09 30.8487 118.34 29.5557ZM144.031 24.2261C143.938 24.9199 143.813 25.5821 143.657 26.2444L142.283 25.6452C142.439 25.0775 142.595 24.5099 142.689 23.9422L144.031 24.2261ZM142.158 29.7449C141.752 30.4702 141.253 31.1325 140.691 31.7632L139.38 30.3441C139.879 29.871 140.316 29.3349 140.722 28.7673L142.158 29.7449ZM138.287 33.9392C137.944 34.1915 137.601 34.4438 137.226 34.6645C136.571 35.043 135.884 35.3583 135.197 35.6106L134.573 33.2454C135.384 32.9931 136.227 32.6462 137.008 32.1732C137.132 32.1101 137.226 32.047 137.351 31.984L138.287 33.9392ZM132.7 36.3044C131.264 36.5567 129.797 36.5882 128.361 36.3675L129.266 33.5923C130.421 33.813 131.638 33.813 132.856 33.6554L132.7 36.3044ZM126.8 36.0521L127.986 33.3085C126.644 32.93 125.364 32.2993 124.24 31.4478L122.086 33.7815C123.491 34.8537 125.114 35.6106 126.8 36.0521ZM111.723 34.5699C111.192 34.1599 110.661 33.7184 110.193 33.2139L111.379 32.3309C111.785 32.7724 112.191 33.1823 112.659 33.5608L111.723 34.5699ZM107.914 30.1864C107.54 29.4611 107.196 28.6727 106.915 27.8843L108.788 27.4428C108.975 28.105 109.194 28.7673 109.475 29.398L107.914 30.1864ZM106.26 24.6991C106.197 24.2576 106.197 23.8476 106.197 23.4061C106.197 22.6177 106.26 21.8924 106.385 21.1355L108.726 21.7663C108.507 22.6177 108.414 23.5323 108.414 24.4468V24.8253L106.26 24.6991ZM107.04 18.6126C107.54 17.2251 108.258 15.9321 109.132 14.7968L111.067 16.9412C110.318 17.8873 109.693 18.928 109.225 20.0948L107.04 18.6126ZM110.193 13.5669L111.941 15.9952C112.94 15.0175 114.126 14.1976 115.406 13.6299L114.501 10.6025C112.878 11.2963 111.41 12.3054 110.193 13.5669ZM136.414 20.9463C135.946 21.7663 135.416 22.5231 134.822 23.1854L132.762 20.7256C133.074 20.3156 133.355 19.8741 133.605 19.4326C134.292 18.2342 134.729 17.0043 134.979 15.7429L137.975 16.8782C137.663 18.2973 137.164 19.6533 136.414 20.9463ZM119.027 1.14165C119.651 0.857822 120.276 0.63707 120.931 0.479389L121.087 1.96159C120.525 2.08773 119.964 2.24541 119.433 2.46616L119.027 1.14165ZM124.677 0.00634766C125.489 0.00634766 126.332 0.100956 127.143 0.258636L126.581 2.11927C125.926 1.93005 125.239 1.83544 124.552 1.77237L124.677 0.00634766ZM130.202 1.26779C130.608 1.45701 130.983 1.64622 131.357 1.86698C132.013 2.24541 132.637 2.68692 133.199 3.15996L131.482 4.89444C130.858 4.29526 130.14 3.75914 129.328 3.2861C129.235 3.22303 129.11 3.15996 129.016 3.09689L130.202 1.26779ZM135.041 4.98905C135.977 6.12435 136.727 7.41733 137.257 8.74185L134.448 9.37257C134.011 8.23727 133.418 7.16504 132.669 6.18742L135.041 4.98905ZM137.788 10.2871C138.225 11.9901 138.381 13.7876 138.163 15.5536L135.103 14.8283C135.259 13.4092 135.166 11.9901 134.822 10.634L137.788 10.2871Z" fill="#B8D344"/>
<path fill-rule="evenodd" clip-rule="evenodd" d="M113.439 18.9911C113.908 18.2027 114.438 17.4459 115.032 16.7521L117.092 19.2119C116.78 19.6219 116.499 20.0634 116.218 20.5364C115.562 21.7032 115.094 22.9647 114.875 24.2261L111.879 23.0593C112.191 21.6717 112.69 20.2841 113.439 18.9911ZM131.514 10.4133C131.982 11.2333 132.325 12.0532 132.637 12.9362L129.485 13.5039C129.297 13.0308 129.048 12.5578 128.798 12.0847C128.111 10.9179 127.268 9.90874 126.301 9.05727L128.798 7.03896C129.828 7.98504 130.764 9.12034 131.514 10.4133ZM105.823 15.7114C105.885 15.0491 106.01 14.3869 106.197 13.7246L107.571 14.3238C107.384 14.8599 107.259 15.4276 107.165 16.0267L105.823 15.7114ZM107.696 10.1926C108.102 9.49877 108.601 8.80498 109.132 8.17426L110.443 9.59338C109.974 10.098 109.506 10.6341 109.132 11.1702L107.696 10.1926ZM111.535 5.99827C111.879 5.74598 112.253 5.52523 112.628 5.30447C113.283 4.92604 113.939 4.57914 114.626 4.32685L115.281 6.69206C114.438 6.94435 113.627 7.29125 112.815 7.76429C112.722 7.82736 112.597 7.89043 112.503 7.95351L111.535 5.99827ZM117.154 3.63306C118.59 3.38077 120.057 3.34924 121.493 3.56999L120.588 6.34516C119.402 6.15595 118.184 6.12441 116.998 6.31363L117.154 3.63306ZM123.054 3.88535L121.868 6.62899C123.21 7.00742 124.459 7.63814 125.614 8.48962L127.768 6.15595C126.332 5.11526 124.74 4.32685 123.054 3.88535ZM129.828 30.5018C128.891 30.5018 127.986 30.4072 127.112 30.2495L128.205 27.1905C128.704 27.2536 129.235 27.3167 129.734 27.3167C131.108 27.3167 132.388 27.0644 133.605 26.6544L134.073 29.8396C132.731 30.2811 131.326 30.5018 129.828 30.5018ZM138.131 5.39908C138.662 5.80905 139.162 6.25056 139.63 6.7236L138.444 7.63814C138.069 7.19664 137.632 6.78667 137.195 6.40824L138.131 5.39908ZM141.909 9.7826C142.314 10.5079 142.658 11.2648 142.939 12.0532L141.066 12.4947C140.878 11.8324 140.629 11.1702 140.348 10.5395L141.909 9.7826ZM143.594 15.2699C143.625 15.6798 143.657 16.1214 143.657 16.5629C143.657 17.3197 143.594 18.0766 143.469 18.8019L141.128 18.1712C141.315 17.3197 141.44 16.4367 141.44 15.4906C141.44 15.3645 141.44 15.2383 141.409 15.1122L143.594 15.2699ZM142.814 21.3563C142.314 22.7439 141.596 24.0369 140.722 25.1722L138.756 22.9962C139.536 22.0501 140.16 21.0095 140.597 19.8742L142.814 21.3563ZM139.63 26.3706L137.882 23.9738C136.883 24.9515 135.728 25.7399 134.417 26.3075L135.353 29.3665C136.976 28.6412 138.412 27.632 139.63 26.3706ZM130.827 38.8273C130.203 39.0796 129.578 39.3004 128.923 39.4896L128.735 37.9759C129.297 37.8813 129.859 37.692 130.421 37.5028L130.827 38.8273ZM125.177 39.9311C124.334 39.9311 123.522 39.8365 122.711 39.6788L123.273 37.8182C123.928 38.0074 124.615 38.1336 125.27 38.1966L125.177 39.9311ZM119.62 38.6697C119.246 38.4804 118.871 38.2912 118.496 38.0705C117.841 37.692 117.217 37.2505 116.655 36.7775L118.34 35.043C118.996 35.6422 119.714 36.2099 120.494 36.6514C120.619 36.7144 120.713 36.7775 120.838 36.8406L119.62 38.6697ZM114.813 34.9484C113.845 33.8131 113.127 32.5517 112.565 31.1956L115.406 30.5649C115.812 31.7002 116.405 32.7724 117.185 33.75L114.813 34.9484ZM112.066 29.6503C111.598 27.9474 111.473 26.1814 111.66 24.3838L114.719 25.1091C114.563 26.5283 114.688 27.9474 115.032 29.335L112.066 29.6503Z" fill="#34A853"/>
</g>
<defs>
<clipPath id="clip0_906:1039">
<rect width="165.882" height="40" fill="white"/>
</clipPath>
</defs>
</svg>
