<svg width="41" height="41" viewBox="0 0 41 41" fill="none" xmlns="http://www.w3.org/2000/svg">
<path d="M20.5 41C31.8218 41 41 31.8218 41 20.5C41 9.17816 31.8218 0 20.5 0C9.17816 0 0 9.17816 0 20.5C0 31.8218 9.17816 41 20.5 41Z" fill="#B1D145"/>
<path d="M20.5 43C32.9264 43 43 32.9264 43 20.5C43 8.07359 32.9264 -2 20.5 -2C8.07359 -2 -2 8.07359 -2 20.5C-2 32.9264 8.07359 43 20.5 43Z" stroke="white"/>
<path d="M19.9592 10.7593C19.0392 10.726 18.1222 10.8817 17.2648 11.2168C16.4074 11.5519 15.6278 12.0593 14.9742 12.7076C14.3207 13.3558 13.8069 14.1312 13.4648 14.9858C13.1227 15.8405 12.9595 16.7562 12.9852 17.6764C12.9852 21.8597 16.9635 23.3185 17.1156 24.9929H22.8027C22.9562 23.3198 26.9332 21.8597 26.9332 17.6764C26.9589 16.7562 26.7957 15.8405 26.4536 14.9858C26.1114 14.1312 25.5977 13.3558 24.9441 12.7076C24.2905 12.0593 23.511 11.5519 22.6536 11.2168C21.7962 10.8817 20.8791 10.726 19.9592 10.7593ZM22.7366 21.5952C22.2954 22.0145 21.8873 22.4673 21.5159 22.9495H18.4052C18.0335 22.4671 17.6249 22.0143 17.1831 21.5952C16.5662 21.1326 16.0551 20.5438 15.6838 19.868C15.3125 19.1923 15.0896 18.4451 15.0299 17.6764C15.0511 16.3825 15.58 15.1488 16.5025 14.2413C17.4249 13.3338 18.6671 12.8252 19.9612 12.8252C21.2552 12.8252 22.4974 13.3338 23.4199 14.2413C24.3424 15.1488 24.8712 16.3825 24.8924 17.6764C24.8324 18.4453 24.6091 19.1926 24.2374 19.8684C23.8656 20.5442 23.354 21.1329 22.7366 21.5952Z" fill="white"/>
<path d="M19.9631 29.9498C20.7999 29.9242 21.5924 29.5677 22.1667 28.9585C22.741 28.3492 23.0501 27.5371 23.0262 26.7002H16.9C16.8762 27.5371 17.1853 28.3492 17.7595 28.9585C18.3338 29.5677 19.1263 29.9242 19.9631 29.9498Z" fill="white"/>
</svg>
